<svg width="78" height="78" viewBox="0 0 78 78" fill="none" xmlns="http://www.w3.org/2000/svg">
<g clip-path="url(#clip0_63_201)">
<path d="M70.0483 12.9999C69.753 12.9694 69.4553 12.9694 69.16 12.9999H8.49333C8.10451 13.0059 7.71827 13.0642 7.345 13.1732L38.6533 44.3515L70.0483 12.9999Z" fill="url(#paint0_linear_63_201)"/>
<path d="M73.255 16.0117L41.7083 47.4284C40.8964 48.2355 39.7981 48.6885 38.6533 48.6885C37.5085 48.6885 36.4102 48.2355 35.5983 47.4284L4.33334 16.2501C4.23722 16.6033 4.18626 16.9673 4.18167 17.3334V60.6667C4.18167 61.816 4.63822 62.9182 5.45088 63.7309C6.26353 64.5435 7.36573 65.0001 8.515 65.0001H69.1817C70.3309 65.0001 71.4332 64.5435 72.2458 63.7309C73.0585 62.9182 73.515 61.816 73.515 60.6667V17.3334C73.4978 16.882 73.41 16.436 73.255 16.0117ZM11.4833 60.6667H8.47167V57.5684L24.2233 41.9467L27.2783 45.0017L11.4833 60.6667ZM69.1383 60.6667H66.105L50.31 45.0017L53.365 41.9467L69.1167 57.5684L69.1383 60.6667Z" fill="url(#paint1_linear_63_201)"/>
</g>
<defs>
<linearGradient id="paint0_linear_63_201" x1="7.345" y1="13.1919" x2="28.7186" y2="71.4411" gradientUnits="userSpaceOnUse">
<stop stop-color="#E1C822"/>
<stop offset="1" stop-color="#C1AA10"/>
</linearGradient>
<linearGradient id="paint1_linear_63_201" x1="4.18167" y1="16.3473" x2="46.3352" y2="97.7017" gradientUnits="userSpaceOnUse">
<stop stop-color="#E1C822"/>
<stop offset="1" stop-color="#C1AA10"/>
</linearGradient>
<clipPath id="clip0_63_201">
<rect width="78" height="78" fill="white"/>
</clipPath>
</defs>
</svg>
